PathFileType	4	(X/Y/Z)	Patient4_TMGait_0pt7_02_right_22.trc.trc
DataRate	CameraRate	NumFrames	NumMarkers	Units	OrigDataRate	OrigDataStartFrame	OrigNumFrames
90.909090909091	90.909090909091	5	33	mm	90.909090909091	36	       141
Frame#	Time	Sacral			L.Shoulder			Chest			R.Shoulder			Neck			R.ASIS			L.ASIS			R.Thigh.Superior			R.Thigh.Lateral			R.Thigh.Inferior			R.Patella			L.Thigh.Superior			L.Thigh.Lateral			L.Thigh.Inferior			L.Patella			L.Shank.Superior			L.Shank.Lateral			L.Shank.Inferior			R.Shank.Superior			R.Shank.Lateral			R.Shank.Inferior			R.Heel			R.Midfoot.Superior			R.Midfoot.Lateral			R.Toe			L.Heel			L.Midfoot.Lateral			L.Midfoot.Superior			L.Toe			L.Elbow			L.Wrist			R.Elbow			R.Wrist			
		X1	Y1	Z1	X2	Y2	Z2	X3	Y3	Z3	X4	Y4	Z4	X5	Y5	Z5	X6	Y6	Z6	X7	Y7	Z7	X8	Y8	Z8	X9	Y9	Z9	X10	Y10	Z10	X11	Y11	Z11	X12	Y12	Z12	X13	Y13	Z13	X14	Y14	Z14	X15	Y15	Z15	X16	Y16	Z16	X17	Y17	Z17	X18	Y18	Z18	X19	Y19	Z19	X20	Y20	Z20	X21	Y21	Z21	X22	Y22	Z22	X23	Y23	Z23	X24	Y24	Z24	X25	Y25	Z25	X26	Y26	Z26	X27	Y27	Z27	X28	Y28	Z28	X29	Y29	Z29	X30	Y30	Z30	X31	Y31	Z31	X32	Y32	Z32	X33	Y33	Z33	

36	24.855000000000	809.473783594020	1006.531627082794	474.561899438355	1012.504916720655	1425.186280827509	294.794509602613	1107.235658064471	1350.473040739305	459.961848826554	1021.126614576685	1431.137503662328	629.378152277610	1009.879726003010	1486.862472176420	449.474667210822	1031.230058507008	934.434295931232	601.270719360625	1024.626477810518	951.704350616658	323.430077747369	1093.572116563905	750.241401741724	574.301614129530	1024.373405435994	634.516560126549	634.692648402035	1110.891792308494	590.224710193437	558.439482887475	1123.483548205093	501.973924509780	568.186474854220	1044.863134771244	729.734229630705	349.465800473958	942.877494001155	625.075765600628	284.283757131106	1018.779858817333	532.443750157760	342.270631014564	1005.126468882390	450.676699017236	340.154261585122	939.961550125019	395.440615196562	333.556428819070	802.877560662390	341.909609747936	284.855906818772	798.081442153697	213.063078289275	343.205344878227	1101.355404486696	411.769180778443	576.094944457221	1035.118428748137	303.327274928615	635.195377718114	1089.173987762243	211.277745337084	577.762219068035	970.120152946863	42.609417033826	542.853749225883	1139.015665178074	99.728270962217	587.805811640989	1049.856657412714	37.050101898043	621.171405521142	1257.683731196917	48.203505689864	620.823743418072	614.276826456791	123.205628737611	382.212587601570	679.326413979423	82.010150890240	306.766899354367	779.914821754284	110.691016236235	327.683593817842	876.520159672502	34.287557702863	311.083766443798	1032.116594286451	1087.087451763145	155.204014535187	1275.957009987303	1030.716103700077	207.706660408740	872.303338643105	1123.958798727932	749.302008869170	832.027420479068	865.973537922694	764.988398437092	
37	24.866000000000	809.792345863462	1007.986933517848	477.853399963921	1012.734687216841	1426.344510856898	297.077799571744	1108.123639314347	1351.335449389364	461.730212427873	1023.129069091594	1432.194251207430	631.549003874468	1010.959811175731	1487.958965781143	451.807456748873	1031.871566771723	935.726127288038	603.505728755720	1024.386882283629	952.605706116790	325.507419667473	1091.881927879729	749.427919995589	577.357800646365	1020.420926236875	634.642307438909	636.632720610236	1106.503207552134	589.453560892122	560.259477956464	1117.876101514584	501.353137454511	569.183817004814	1049.537707225293	732.325242091134	352.057091816169	951.972653120332	625.141333530540	285.886876367263	1030.696969404514	534.030381774808	343.952431198468	1017.930549959213	450.948292811823	340.943136676458	950.613288644875	396.139896093633	334.213323572789	811.601210025715	347.837329459047	285.375852528520	802.400718187670	218.851676295048	342.535699157131	1095.381797460331	411.489712638127	577.175178678842	1028.613025668071	303.257830446609	635.931796339449	1082.217502902978	211.098129663320	578.212659184985	962.525301908235	42.600781199260	542.984158736850	1131.417412652047	99.638392834891	588.012875420973	1042.227736073317	37.027970690005	621.316045146413	1250.111450847955	47.897731575839	621.021678719064	615.341310552177	139.213499128558	381.121647285882	677.424330577323	93.131466848996	306.032178633104	779.574824661422	114.903730753969	326.679251700304	869.449560911563	32.870987352016	311.009595250495	1024.310695169824	1085.953064650175	160.837477573210	1265.697909385744	1015.390054944093	210.207799724800	879.188908835514	1121.896563510543	751.881574447650	846.094023697948	862.715414245967	765.833504623341	
38	24.877000000000	809.947056487851	1009.283767345290	481.064783195781	1012.648953176860	1427.292867784582	299.239430207717	1108.855023677594	1352.035934464615	463.313669909812	1025.107192112541	1433.062548515849	633.612642901433	1011.840290358107	1488.881563032547	454.052857729255	1032.408485567966	936.843699910771	605.570590204967	1024.121165406136	953.410694861249	327.578718515927	1090.019980501925	748.451171013223	580.470236202465	1016.300258368638	634.678590128904	638.538715518600	1101.947526790697	588.635897683613	562.054940302293	1112.075795114670	500.715790105067	570.172675692161	1054.304559725122	735.098348006941	354.652918270811	961.483033102573	625.420665793056	287.410504700508	1042.830783870957	536.033031127658	345.827048108975	1031.106265249258	451.710847514315	342.144181992046	961.883601451904	397.152294845204	335.158205854618	821.307240870452	353.931229357735	285.891245587485	807.661888535386	225.064108267706	342.078848642020	1089.285898534903	411.178647988322	578.217667799461	1022.057071146695	303.135953460587	636.672136219294	1075.237094756913	210.891777271964	578.622066552878	954.895486490562	42.599519973177	543.086167166910	1123.814640266236	99.451910072241	588.150620379576	1034.570009019369	36.993254593156	621.416466946647	1242.536155154810	47.449880458296	621.137832470615	617.900816945203	156.025733931594	379.989536891383	676.770573980937	105.279711503039	305.248267559207	780.090196677965	119.808009420054	325.897880728867	862.764315677051	31.348919526180	310.968741375415	1016.729862780680	1084.838808289512	166.499089309522	1254.568146229343	999.222349671325	212.529284394258	886.323620354489	1119.695173594173	754.540468832479	861.189708019543	859.426839367881	766.765243487135	
39	24.888000000000	809.934838365348	1010.406175233274	484.141431105659	1012.264223243668	1428.016084218547	301.257854910096	1109.423307018335	1352.556717876975	464.703849474561	1027.032964172270	1433.721485460278	635.556388151693	1012.536149990271	1489.626508554216	456.188591446050	1032.826218653062	937.794479544427	607.477769172174	1023.814587427019	954.103540324515	329.656332256221	1088.052196253219	747.408539641416	583.495157830667	1012.220611557074	634.685250332460	640.414736584201	1097.372682340099	587.819625375805	563.790943109641	1106.233581135660	500.087373169760	571.189159142994	1059.066134928089	738.052939794933	357.254267013013	971.232743910118	625.970968196301	288.880172750750	1054.974969286410	538.484912194762	347.899820221868	1044.476274343766	452.999528158177	343.738485183078	973.598066210361	398.511694963045	336.397082009388	831.821476863788	360.112844135078	286.425250698569	813.794415231935	231.592980731920	341.865377506063	1083.194277670645	410.843568998353	579.228979733036	1015.560373225257	302.989036435683	637.448368434518	1068.285864981389	210.663715614284	579.001487816677	947.231209805301	42.609188576912	543.181227440869	1116.214316477255	99.210090423259	588.247027703500	1026.883389709286	36.953262606668	621.495371061462	1234.951399279891	46.902907762130	621.201393659773	621.926219175201	173.187769720028	378.833277252576	677.478150581003	118.117981612204	304.439618174862	781.541736002838	125.345380235519	325.365344953543	856.744470477819	29.857882922939	311.002328028005	1009.434050774753	1083.682240460414	172.151919963269	1242.460278018834	982.375188714536	214.671497712343	893.714455938765	1117.329136322287	757.241459812974	877.239716799556	856.158020716437	767.768877012360	
40	24.899000000000	809.768053572761	1011.348001273391	487.049870663122	1011.608382041975	1428.518148422470	303.114175213391	1109.825744090305	1352.901167682785	465.898319673769	1028.871420287496	1434.174895684908	637.365421530433	1013.066277910366	1490.204845618014	458.187197755702	1033.116763695653	938.598902090957	609.252421686827	1023.440397766182	954.672441266468	331.746667952946	1086.039032306431	746.384270466308	586.312709502589	1008.328369999312	634.701204071980	642.255653436316	1092.893788305855	587.037895960297	565.445080290621	1100.472432884434	499.482848157540	572.248067926716	1063.731844260035	741.188751870999	359.869373865335	981.045267179719	626.845397220530	290.318752216027	1066.948008795510	541.408040285311	350.152741055929	1057.875844563591	454.837198271561	345.662049134593	985.589564122896	400.248413660891	337.897703910359	842.953582991036	366.301261795026	286.995493484831	820.731045714171	238.306072061954	341.899636652790	1077.203521751766	410.489247430412	580.214219497135	1009.190431411094	302.837836387143	638.267055205851	1061.401043537936	210.419588623863	579.361058226251	939.537932485022	42.630122130612	543.284187035021	1108.621942767858	98.951784793858	588.325058525953	1019.172486020324	36.913971542954	621.570060787645	1227.353378953011	46.306249787720	621.240986310537	627.334495006685	190.160893207176	377.672559149277	679.638370741297	131.209082888157	303.636202486437	784.034901107611	131.394793114230	325.088429905927	851.764677131553	28.580504516373	311.157877821221	1002.461011335462	1082.443423936261	177.762273837142	1229.267819954428	965.047789620828	216.641556103234	901.385326636255	1114.788685281114	759.936912405432	894.184731774729	852.972814598858	768.810340830053	
